<?xml version="1.0" encoding="UTF-8" standalone="no"?>
<svg
   xmlns:dc="http://purl.org/dc/elements/1.1/"
   xmlns:cc="http://creativecommons.org/ns#"
   xmlns:rdf="http://www.w3.org/1999/02/22-rdf-syntax-ns#"
   xmlns:svg="http://www.w3.org/2000/svg"
   xmlns="http://www.w3.org/2000/svg"
   xmlns:sodipodi="http://sodipodi.sourceforge.net/DTD/sodipodi-0.dtd"
   xmlns:inkscape="http://www.inkscape.org/namespaces/inkscape"
   viewbox="0 0 1600 1200"
   y="0"
   x="0"
   sodipodi:docname="ROB-logo.svg"
   inkscape:version="1.0 (4035a4fb49, 2020-05-01)"
   id="rob_logo"
   height="862.11499"
   width="1539.516"
   version="1.1">
  <title
     id="title3003">Royal Observatory of Belgium Logo</title>
  <sodipodi:namedview
     units="in"
     inkscape:lockguides="false"
     inkscape:document-rotation="0"
     inkscape:current-layer="rob_logo"
     inkscape:window-maximized="1"
     inkscape:window-y="0"
     inkscape:window-x="1920"
     inkscape:cy="217.07247"
     inkscape:cx="2391.8442"
     inkscape:zoom="0.37916667"
     showgrid="false"
     id="namedview2999"
     inkscape:window-height="1411"
     inkscape:window-width="2560"
     inkscape:pageshadow="2"
     inkscape:pageopacity="0"
     guidetolerance="10"
     gridtolerance="10"
     objecttolerance="10"
     borderopacity="1"
     bordercolor="#666666"
     pagecolor="#ffffff" />
  <defs
     id="defs2987" />
  <metadata
     id="metadata2990">
    <rdf:RDF>
      <cc:Work
         rdf:about="">
        <dc:format>image/svg+xml</dc:format>
        <dc:type
           rdf:resource="http://purl.org/dc/dcmitype/StillImage" />
        <dc:title>Royal Observatory of Belgium Logo</dc:title>
        <dc:date>30/09/2014</dc:date>
        <dc:creator>
          <cc:Agent>
            <dc:title>Alexandre Claerhout</dc:title>
          </cc:Agent>
        </dc:creator>
      </cc:Work>
    </rdf:RDF>
  </metadata>
  <g
     transform="translate(-29.632151,-182.25432)"
     id="stars">
    <path
       class="row-1 stars"
       id="star1"
       transform="matrix(0.87000094,0,0,0.87159686,1138.5274,275)"
       d="m -296.9102,176.02185 -93.13086,-66.36942 -90.75771,67.45871 34.34205,-109.081995 -92.20272,-65.4698189 114.35541,-1.0469628 33.7733,-107.9212833 36.33348,108.4349349 113.07576,-1.22920105 -91.90008,68.06343715 z" />
    <path
       class="row-2 stars"
       id="star2"
       transform="matrix(0.87000094,0,0,0.87159686,498.26637,575)"
       d="m -296.9102,176.02185 -93.13086,-66.36942 -90.75771,67.45871 34.34205,-109.081995 -92.20272,-65.4698189 114.35541,-1.0469628 33.7733,-107.9212833 36.33348,108.4349349 113.07576,-1.22920105 -91.90008,68.06343715 z" />
    <path
       class="row-2 stars"
       id="star3"
       transform="matrix(0.87000094,0,0,0.87159686,818.75879,575)"
       d="m -296.9102,176.02185 -93.13086,-66.36942 -90.75771,67.45871 34.34205,-109.081995 -92.20272,-65.4698189 114.35541,-1.0469628 33.7733,-107.9212833 36.33348,108.4349349 113.07576,-1.22920105 -91.90008,68.06343715 z" />
    <path
       class="row-2 stars"
       id="star4"
       transform="matrix(0.87000094,0,0,0.87159686,1138.9738,575)"
       d="m -296.9102,176.02185 -93.13086,-66.36942 -90.75771,67.45871 34.34205,-109.081995 -92.20272,-65.4698189 114.35541,-1.0469628 33.7733,-107.9212833 36.33348,108.4349349 113.07576,-1.22920105 -91.90008,68.06343715 z" />
    <path
       class="row-2 stars"
       id="star5"
       transform="matrix(0.87000094,0,0,0.87159686,1459.2547,575)"
       d="m -296.9102,176.02185 -93.13086,-66.36942 -90.75771,67.45871 34.34205,-109.081995 -92.20272,-65.4698189 114.35541,-1.0469628 33.7733,-107.9212833 36.33348,108.4349349 113.07576,-1.22920105 -91.90008,68.06343715 z" />
    <path
       class="row-2 stars"
       id="star6"
       transform="matrix(0.87000094,0,0,0.87159686,1778.9241,575)"
       d="m -296.9102,176.02185 -93.13086,-66.36942 -90.75771,67.45871 34.34205,-109.081995 -92.20272,-65.4698189 114.35541,-1.0469628 33.7733,-107.9212833 36.33348,108.4349349 113.07576,-1.22920105 -91.90008,68.06343715 z" />
    <path
       class="row-3 stars"
       id="star7"
       transform="matrix(0.87000094,0,0,0.87159686,659.32741,890)"
       d="m -296.9102,176.02185 -93.13086,-66.36942 -90.75771,67.45871 34.34205,-109.081995 -92.20272,-65.4698189 114.35541,-1.0469628 33.7733,-107.9212833 36.33348,108.4349349 113.07576,-1.22920105 -91.90008,68.06343715 z" />
    <path
       class="row-3 stars"
       id="star8"
       transform="matrix(0.87000094,0,0,0.87159686,978.49433,890)"
       d="m -296.9102,176.02185 -93.13086,-66.36942 -90.75771,67.45871 34.34205,-109.081995 -92.20272,-65.4698189 114.35541,-1.0469628 33.7733,-107.9212833 36.33348,108.4349349 113.07576,-1.22920105 -91.90008,68.06343715 z" />
    <path
       class="row-3 stars"
       id="star9"
       transform="matrix(0.87000094,0,0,0.87159686,1298.9496,890)"
       d="m -296.9102,176.02185 -93.13086,-66.36942 -90.75771,67.45871 34.34205,-109.081995 -92.20272,-65.4698189 114.35541,-1.0469628 33.7733,-107.9212833 36.33348,108.4349349 113.07576,-1.22920105 -91.90008,68.06343715 z" />
    <path
       class="row-3 stars"
       id="star10"
       transform="matrix(0.87000094,0,0,0.87159686,1618.891,890)"
       d="m -296.9102,176.02185 -93.13086,-66.36942 -90.75771,67.45871 34.34205,-109.081995 -92.20272,-65.4698189 114.35541,-1.0469628 33.7733,-107.9212833 36.33348,108.4349349 113.07576,-1.22920105 -91.90008,68.06343715 z" />
  </g>
</svg>
